<?xml version="1.0" encoding="UTF-8"?>
<svg xmlns="http://www.w3.org/2000/svg" xmlns:xlink="http://www.w3.org/1999/xlink" width="16pt" height="16pt" viewBox="0 0 16 16" version="1.1">
<g id="surface1">
<path style=" stroke:none;fill-rule:nonzero;fill:rgb(85.490196%,20.784314%,20.784314%);fill-opacity:1;" d="M 7.058594 0 L 0.84375 0 C 0.378906 0 0 0.371094 0 0.832031 L 0 6.972656 C 0 7.433594 0.375 7.804688 0.84375 7.804688 L 7.058594 7.804688 C 7.523438 7.804688 7.902344 7.433594 7.902344 6.972656 L 7.902344 0.832031 C 7.902344 0.371094 7.523438 0 7.058594 0 Z M 6.492188 4.511719 C 6.492188 4.574219 6.464844 4.628906 6.421875 4.671875 C 6.378906 4.714844 6.320312 4.738281 6.261719 4.738281 L 4.796875 4.738281 L 4.796875 6.464844 C 4.796875 6.523438 4.773438 6.582031 4.730469 6.625 C 4.6875 6.667969 4.628906 6.691406 4.566406 6.691406 L 3.332031 6.691406 C 3.273438 6.691406 3.214844 6.667969 3.171875 6.625 C 3.128906 6.582031 3.105469 6.523438 3.105469 6.464844 L 3.105469 4.738281 L 1.640625 4.738281 C 1.578125 4.738281 1.519531 4.714844 1.476562 4.671875 C 1.433594 4.628906 1.410156 4.574219 1.410156 4.511719 L 1.410156 3.292969 C 1.410156 3.167969 1.511719 3.066406 1.640625 3.066406 L 3.105469 3.066406 L 3.105469 1.621094 C 3.105469 1.496094 3.207031 1.394531 3.332031 1.394531 L 4.566406 1.394531 C 4.695312 1.394531 4.796875 1.496094 4.796875 1.621094 L 4.796875 3.066406 L 6.261719 3.066406 C 6.386719 3.066406 6.492188 3.167969 6.492188 3.292969 Z M 6.492188 4.511719 "/>
<path style=" stroke:none;fill-rule:nonzero;fill:rgb(52.54902%,20.392157%,85.098039%);fill-opacity:1;" d="M 6.886719 8.195312 L 1.015625 8.195312 C 0.449219 8.195312 0 8.648438 0 9.199219 L 0 14.996094 C 0 15.554688 0.457031 16 1.015625 16 L 6.886719 16 C 7.453125 16 7.902344 15.546875 7.902344 14.996094 L 7.902344 9.199219 C 7.902344 8.648438 7.441406 8.195312 6.886719 8.195312 Z M 3.945312 10.226562 C 4.222656 10.226562 4.4375 10.449219 4.4375 10.710938 C 4.4375 10.984375 4.210938 11.195312 3.945312 11.195312 C 3.679688 11.195312 3.457031 10.976562 3.457031 10.710938 C 3.457031 10.449219 3.671875 10.226562 3.945312 10.226562 Z M 3.945312 13.976562 C 3.671875 13.976562 3.457031 13.753906 3.457031 13.492188 C 3.457031 13.21875 3.679688 13.007812 3.945312 13.007812 C 4.210938 13.007812 4.4375 13.226562 4.4375 13.492188 C 4.4375 13.753906 4.222656 13.976562 3.945312 13.976562 Z M 5.785156 12.554688 L 2.105469 12.554688 L 2.105469 11.648438 L 5.785156 11.648438 Z M 5.785156 12.554688 "/>
<path style=" stroke:none;fill-rule:nonzero;fill:rgb(21.176471%,85.098039%,85.098039%);fill-opacity:1;" d="M 14.289062 8.195312 L 9.753906 8.195312 C 8.539062 8.195312 8.097656 8.613281 8.097656 9.859375 L 8.097656 14.355469 C 8.097656 15.5625 8.539062 16 9.753906 16 L 14.289062 16 C 15.515625 16 16 15.5625 16 14.355469 L 16 9.859375 C 16 8.613281 15.53125 8.195312 14.289062 8.195312 Z M 13.414062 9.640625 L 14.480469 10.691406 L 13.042969 12.113281 L 14.492188 13.542969 L 13.429688 14.59375 L 11.976562 13.164062 L 10.542969 14.578125 L 9.480469 13.527344 L 10.914062 12.113281 L 9.496094 10.710938 L 10.5625 9.660156 L 11.976562 11.058594 "/>
<path style=" stroke:none;fill-rule:evenodd;fill:rgb(52.54902%,85.098039%,20.392157%);fill-opacity:1;" d="M 9.085938 0 L 15.011719 0 C 15.550781 0 16 0.433594 16 0.976562 L 16 6.828125 C 16 7.359375 15.550781 7.804688 15.011719 7.804688 L 9.085938 7.804688 C 8.539062 7.804688 8.097656 7.359375 8.097656 6.828125 L 8.097656 0.976562 C 8.097656 0.433594 8.539062 0 9.085938 0 Z M 14.957031 3.125 L 14.957031 4.679688 L 9.144531 4.679688 L 9.144531 3.125 Z M 14.957031 3.125 "/>
</g>
</svg>
